<svg xmlns="http://www.w3.org/2000/svg" height="40" viewBox="0 -960 960 960" width="40">
    <path d="M480.236-493.846q25.482 0 43.392-18.146 17.91-18.147 17.91-43.629t-18.146-43.392q-18.146-17.91-43.628-17.91t-43.392 18.146q-17.91 18.146-17.91 43.628t18.146 43.393q18.146 17.91 43.628 17.91ZM480-119.231Q339-243.923 267.577-351.808q-71.423-107.884-71.423-196.346 0-126.923 82.654-209.385Q361.461-840 480-840t201.192 82.461q82.654 82.462 82.654 209.385 0 88.462-71.423 196.346Q621-243.923 480-119.231Z"/ >
    </svg>